#!OML:ASF F:\VICON\USERDATA\INSTALL\rory3\rory3.ASF
:FULLY-SPECIFIED
:DEGREES
2801
root 4.14398 18.2634 14.513 -185.488 246.456 -533.462
lowerback 9.74139 -3.78213 -6.7602
upperback 0.399751 -5.69724 2.12626
thorax -4.15553 -2.68902 6.74911
lowerneck 7.37919 -20.5597 -16.6239
upperneck 28.816 -37.862 15.8911
head 15.6614 -18.2259 2.78689
rclavicle 3.19049e-014 9.14409e-015
rhumerus -36.1586 -9.75619 -79.3355
rradius 30.6057
rwrist 7.27662
rhand -14.4735 7.90614
rfingers 7.12502
rthumb 11.6725 -21.7487
lclavicle 3.19049e-014 9.14409e-015
lhumerus -40.809 16.9373 69.2741
lradius 31.9935
lwrist -2.22024
lhand -19.8439 29.552
lfingers 7.12502
lthumb 6.49053 59.4326
rfemur -6.96702 1.47357 21.9727
rtibia 55.1895
rfoot -0.603509 6.38016
rtoes 2.37281
lfemur -11.4633 -2.09895 -21.975
ltibia 25.1244
lfoot -1.96944 -15.6319
ltoes -15.8464
2802
root 4.23673 18.2438 14.4822 -185.191 246.188 -533.649
lowerback 9.62258 -3.68777 -6.42601
upperback 0.400614 -5.52971 2.05218
thorax -4.15383 -2.6123 6.45518
lowerneck 7.30858 -20.6234 -16.503
upperneck 28.9025 -37.9036 15.7981
head 15.6709 -18.2248 2.72573
rclavicle 5.74985e-014 -5.1684e-015
rhumerus -35.9344 -9.54606 -79.5505
rradius 30.6588
rwrist 6.88739
rhand -14.7701 7.65934
rfingers 7.12502
rthumb 11.3865 -22.0115
lclavicle 5.74985e-014 -5.1684e-015
lhumerus -41.0022 17.0615 68.913
lradius 31.6254
lwrist -2.20639
lhand -19.7145 29.8986
lfingers 7.12502
lthumb 6.61545 59.7753
rfemur -6.1365 1.98129 22.201
rtibia 53.7528
rfoot -0.702271 7.19668
rtoes 2.02425
lfemur -12.1531 -2.31444 -21.9391
ltibia 25.4651
lfoot -1.91544 -15.6506
ltoes -15.5071
2803
root 4.32873 18.228 14.4481 -184.975 246.02 -533.754
lowerback 9.53554 -3.52592 -6.1829
upperback 0.375905 -5.28499 1.98595
thorax -4.19687 -2.49267 6.21747
lowerneck 7.44301 -20.7021 -16.3804
upperneck 28.8512 -37.9784 15.7892
head 15.6069 -18.2578 2.71702
rclavicle -2.08724e-015 -7.95139e-015
rhumerus -35.7594 -9.80372 -79.5356
rradius 30.7002
rwrist 7.06168
rhand -14.7277 7.43424
rfingers 7.12502
rthumb 11.4274 -22.2343
lclavicle -2.08724e-015 -7.95139e-015
lhumerus -41.2302 16.9586 68.6736
lradius 31.3746
lwrist -1.9877
lhand -19.8483 30.1484
lfingers 7.12502
lthumb 6.48622 60.0291
rfemur -5.31202 2.66998 22.45
rtibia 52.2099
rfoot -0.551248 7.7152
rtoes 2.4485
lfemur -12.8047 -2.52272 -21.9237
ltibia 25.7838
lfoot -1.86289 -15.5092
ltoes -15.5125
2804
root 4.41942 18.2146 14.4125 -184.89 245.889 -533.734
lowerback 9.45573 -3.44278 -6.06908
upperback 0.351226 -5.15804 1.96678
thorax -4.20873 -2.43051 6.11469
lowerneck 7.42135 -20.7192 -16.3592
upperneck 29.012 -37.9348 15.57
head 15.6084 -18.2394 2.64993
rclavicle -6.77359e-014 9.14409e-015
rhumerus -35.4459 -9.73748 -79.5671
rradius 30.598
rwrist 7.35907
rhand -14.6924 7.51309
rfingers 7.12502
rthumb 11.4614 -22.1536
lclavicle -6.77359e-014 9.14409e-015
lhumerus -41.6546 17.1985 68.3232
lradius 31.2089
lwrist -1.86274
lhand -19.748 29.8922
lfingers 7.12502
lthumb 6.58307 59.7699
rfemur -4.46213 3.40086 22.6926
rtibia 50.5816
rfoot -0.285963 8.13287
rtoes 1.28025
lfemur -13.3984 -2.6582 -21.9744
ltibia 26.0421
lfoot -1.95558 -15.4036
ltoes -15.8777
2805
root 4.51427 18.2006 14.3796 -184.865 245.723 -533.761
lowerback 9.47055 -3.35657 -5.78872
upperback 0.378427 -5.01683 1.88468
thorax -4.24011 -2.36558 5.85572
lowerneck 7.34148 -20.758 -16.364
upperneck 29.244 -37.955 15.3597
head 15.6805 -18.2402 2.5578
rclavicle -1.22153e-013 1.15295e-014
rhumerus -35.1239 -9.59903 -79.7027
rradius 30.5099
rwrist 7.4567
rhand -15.1068 7.65095
rfingers 7.12502
rthumb 11.0618 -22.0375
lclavicle -1.22153e-013 1.15295e-014
lhumerus -41.9892 17.2965 68.0217
lradius 31.0492
lwrist -1.74497
lhand -19.7859 29.566
lfingers 7.12502
lthumb 6.54653 59.4449
rfemur -3.47883 4.06401 22.8789
rtibia 48.901
rfoot -0.0732828 8.68202
rtoes 0.644134
lfemur -13.8393 -2.81263 -22.0178
ltibia 26.2059
lfoot -1.82615 -15.2707
ltoes -14.8496
2806
root 4.61293 18.1852 14.3374 -184.639 245.501 -533.914
lowerback 9.42524 -3.2153 -5.47931
upperback 0.413292 -4.79592 1.79962
thorax -4.24127 -2.26319 5.56341
lowerneck 7.39005 -20.8305 -16.3423
upperneck 29.1975 -38.09 15.5011
head 15.7193 -18.2861 2.57273
rclavicle 1.92324e-014 -3.18055e-015
rhumerus -34.8294 -9.86606 -79.7448
rradius 30.5517
rwrist 7.44308
rhand -15.4566 7.67974
rfingers 7.12502
rthumb 10.7244 -22.0265
lclavicle 1.92324e-014 -3.18055e-015
lhumerus -42.1182 17.2635 67.8342
lradius 30.8873
lwrist -1.79523
lhand -20.055 29.8606
lfingers 7.12502
lthumb 6.28671 59.7473
rfemur -2.65986 4.78029 23.1711
rtibia 47.1993
rfoot 0.0375255 8.97838
rtoes 0.73047
lfemur -14.3728 -3.10088 -21.949
ltibia 26.3119
lfoot -1.49966 -15.0898
ltoes -13.3186
2807
root 4.70728 18.1717 14.2884 -184.782 245.399 -533.497
lowerback 9.17019 -3.06209 -5.65164
upperback 0.456017 -4.59635 1.77578
thorax -4.06882 -2.16918 5.59203
lowerneck 7.33527 -20.8812 -16.327
upperneck 29.0908 -38.1478 15.6479
head 15.7314 -18.2899 2.59831
rclavicle 1.68967e-014 -7.95139e-016
rhumerus -34.3793 -9.81259 -79.7991
rradius 30.6727
rwrist 7.13918
rhand -15.544 7.78033
rfingers 7.12502
rthumb 10.64 -21.9303
lclavicle 1.68967e-014 -7.95139e-016
lhumerus -42.2519 17.5023 67.6596
lradius 30.7527
lwrist -2.04297
lhand -20.0591 30.1173
lfingers 7.12502
lthumb 6.28274 60.0041
rfemur -2.09761 5.58794 23.2344
rtibia 45.5069
rfoot -0.0409533 9.14852
rtoes 0.109427
lfemur -15.022 -3.30375 -22.1024
ltibia 26.3415
lfoot -1.29833 -14.8631
ltoes -12.8088
2808
root 4.80154 18.1631 14.2389 -184.89 245.333 -533.088
lowerback 8.93289 -2.99159 -5.83438
upperback 0.456495 -4.50774 1.76637
thorax -3.93442 -2.12737 5.65783
lowerneck 7.23126 -20.8691 -16.3425
upperneck 29.1259 -38.0558 15.5724
head 15.7266 -18.2406 2.58456
rclavicle -1.07841e-014 1.74931e-014
rhumerus -33.9153 -9.73052 -79.8417
rradius 30.7429
rwrist 7.34347
rhand -15.1943 7.92808
rfingers 7.12502
rthumb 10.9773 -21.7649
lclavicle -1.07841e-014 1.74931e-014
lhumerus -42.6311 18.048 67.2372
lradius 30.6883
lwrist -2.41428
lhand -19.7561 29.8027
lfingers 7.12502
lthumb 6.57524 59.6806
rfemur -1.58923 6.38578 23.2122
rtibia 43.7976
rfoot -0.256087 9.2597
rtoes 0.977337
lfemur -15.7006 -3.18457 -22.2743
ltibia 26.3484
lfoot -1.2439 -14.9526
ltoes -12.7693
2809
root 4.90276 18.1518 14.1922 -184.622 245.118 -533.21
lowerback 8.92221 -2.95816 -5.6009
upperback 0.427078 -4.44123 1.71331
thorax -3.99015 -2.09549 5.46454
lowerneck 7.16887 -20.9029 -16.2522
upperneck 29.2894 -38.0297 15.3501
head 15.724 -18.2216 2.50167
rclavicle 3.57315e-014 -1.19271e-014
rhumerus -33.5904 -9.68415 -79.9524
rradius 30.8758
rwrist 7.62285
rhand -14.7843 8.11027
rfingers 7.12502
rthumb 11.3728 -21.5613
lclavicle 3.57315e-014 -1.19271e-014
lhumerus -43.0749 18.616 66.6861
lradius 30.6512
lwrist -2.59605
lhand -19.9768 29.3631
lfingers 7.12502
lthumb 6.36222 59.2475
rfemur -1.00215 7.12397 23.4177
rtibia 42.0964
rfoot -0.662362 9.07462
rtoes 2.45197
lfemur -16.3052 -3.17939 -22.2225
ltibia 26.3612
lfoot -1.06534 -15.1371
ltoes -12.1479
2810
root 5.008 18.1376 14.1395 -184.142 244.864 -533.591
lowerback 9.01962 -2.90726 -5.36017
upperback 0.377255 -4.35289 1.75668
thorax -4.1228 -2.04915 5.37517
lowerneck 7.20786 -20.9238 -16.2753
upperneck 29.3359 -38.0308 15.2911
head 15.7277 -18.2246 2.48821
rclavicle 3.2054e-014 -2.22639e-014
rhumerus -33.3112 -9.06036 -80.1897
rradius 31.2055
rwrist 7.0711
rhand -14.8233 7.89016
rfingers 7.12502
rthumb 11.3351 -21.7835
lclavicle 3.2054e-014 -2.22639e-014
lhumerus -43.4539 18.9094 66.4448
lradius 30.6043
lwrist -2.29098
lhand -20.8407 29.0054
lfingers 7.12502
lthumb 5.52813 58.9133
rfemur -0.466525 7.76017 23.7888
rtibia 40.4665
rfoot -1.54721 8.62485
rtoes 3.49474
lfemur -16.8834 -3.25779 -22.0011
ltibia 26.3315
lfoot -0.824664 -15.3873
ltoes -11.7189
2811
root 5.11404 18.1234 14.0808 -183.747 244.702 -533.862
lowerback 9.11089 -2.82273 -5.29419
upperback 0.340194 -4.23505 1.8427
thorax -4.22609 -1.98641 5.42445
lowerneck 7.215 -20.9153 -16.324
upperneck 29.3202 -38.0153 15.3523
head 15.7458 -18.2133 2.51691
rclavicle -2.75814e-014 -3.97569e-016
rhumerus -32.9929 -8.62838 -80.2925
rradius 31.558
rwrist 6.5552
rhand -14.8647 7.74016
rfingers 7.12502
rthumb 11.2953 -21.9357
lclavicle -2.75814e-014 -3.97569e-016
lhumerus -43.8248 19.0676 66.336
lradius 30.6829
lwrist -2.19231
lhand -20.7604 29.0632
lfingers 7.12502
lthumb 5.60566 58.969
rfemur -0.0326012 8.13456 24.0659
rtibia 39.028
rfoot -2.92534 8.36732
rtoes 3.47999
lfemur -17.4352 -3.11916 -21.8077
ltibia 26.1783
lfoot -0.706926 -15.8497
ltoes -12.5336
2812
root 5.21938 18.121 14.0194 -183.602 244.475 -533.774
lowerback 9.10331 -2.71594 -5.33336
upperback 0.311869 -4.09742 1.82074
thorax -4.2683 -1.91492 5.40939
lowerneck 7.24665 -20.9784 -16.2412
upperneck 29.2278 -38.1232 15.5029
head 15.7465 -18.2436 2.53874
rclavicle -4.95471e-014 1.63003e-014
rhumerus -32.7655 -8.49155 -80.4205
rradius 32.0632
rwrist 6.00189
rhand -14.9204 7.62228
rfingers 7.12502
rthumb 11.2415 -22.0565
lclavicle -4.95471e-014 1.63003e-014
lhumerus -44.0886 19.0142 66.242
lradius 30.9038
lwrist -1.9781
lhand -19.9438 29.3683
lfingers 7.12502
lthumb 6.39404 59.2518
rfemur 0.239695 8.08254 24.1005
rtibia 37.8251
rfoot -4.176 8.18449
rtoes 1.75279
lfemur -18.0347 -3.04368 -21.7653
ltibia 25.9235
lfoot -0.321294 -16.305
ltoes -12.6697
2813
root 5.33258 18.1245 13.9613 -183.581 244.046 -533.589
lowerback 9.23491 -2.70855 -5.24876
upperback 0.255667 -4.08929 1.7392
thorax -4.41389 -1.90578 5.28657
lowerneck 7.37146 -21.0191 -16.2266
upperneck 29.1236 -38.2138 15.6662
head 15.7406 -18.2823 2.58682
rclavicle -5.26282e-014 0
rhumerus -32.5846 -8.07179 -80.6766
rradius 32.6096
rwrist 5.26444
rhand -15.1865 7.60144
rfingers 7.12502
rthumb 10.9849 -22.0912
lclavicle -5.26282e-014 0
lhumerus -44.3776 18.9365 66.138
lradius 31.1218
lwrist -1.45964
lhand -19.5397 29.7382
lfingers 7.12502
lthumb 6.78413 59.6096
rfemur 0.438964 7.78967 24.0574
rtibia 36.8336
rfoot -4.97294 7.97109
rtoes 0.675247
lfemur -18.5676 -3.17955 -21.7886
ltibia 25.5702
lfoot 0.645094 -16.6846
ltoes -10.7799
2814
root 5.44818 18.1221 13.9024 -183.195 243.648 -533.737
lowerback 9.32149 -2.73314 -5.07275
upperback 0.189735 -4.10719 1.75989
thorax -4.53998 -1.91158 5.22016
lowerneck 7.27779 -21.0759 -16.0135
upperneck 29.1844 -38.1476 15.4151
head 15.6435 -18.2381 2.49946
rclavicle -1.11816e-014 -1.98785e-015
rhumerus -32.3413 -7.50365 -80.9059
rradius 33.1521
rwrist 4.70819
rhand -15.4058 7.63913
rfingers 7.12502
rthumb 10.7733 -22.0646
lclavicle -1.11816e-014 -1.98785e-015
lhumerus -44.6661 18.9959 66.1069
lradius 31.337
lwrist -1.49018
lhand -18.7596 30.442
lfingers 7.12502
lthumb 7.53723 60.2877
rfemur 0.407687 7.70035 24.2182
rtibia 36.022
rfoot -5.70116 7.66698
rtoes 2.60059
lfemur -19.12 -3.06025 -21.6735
ltibia 25.0451
lfoot 1.77029 -17.2967
ltoes -8.28965
2815
root 5.55879 18.1205 13.8349 -182.66 243.306 -533.994
lowerback 9.33497 -2.72039 -5.0549
upperback 0.128373 -4.08395 1.88165
thorax -4.60721 -1.89539 5.33951
lowerneck 7.0246 -21.1509 -15.6702
upperneck 29.3376 -38.0225 14.9641
head 15.5168 -18.1523 2.33254
rclavicle 7.07673e-014 1.35174e-014
rhumerus -32.1076 -6.71719 -81.1159
rradius 33.8169
rwrist 3.81198
rhand -15.6635 7.483
rfingers 7.12502
rthumb 10.5247 -22.2335
lclavicle 7.07673e-014 1.35174e-014
lhumerus -44.8967 19.2792 66.0511
lradius 31.3927
lwrist -2.15425
lhand -17.7391 30.6866
lfingers 7.12502
lthumb 8.52212 60.4946
rfemur 0.173587 7.68073 24.4858
rtibia 35.3049
rfoot -6.50589 7.07677
rtoes 4.9897
lfemur -19.654 -2.83969 -21.4726
ltibia 24.3903
lfoot 2.51359 -18.0622
ltoes -7.62486
